<svg height="512pt" viewBox="-16 0 512 512" width="512pt" xmlns="http://www.w3.org/2000/svg"><path d="m254.933594 79.265625c0 8.285156-6.714844 15-15 15s-15-6.714844-15-15c0-8.28125 6.714844-15 15-15s15 6.71875 15 15zm0 0"/><path d="m476.582031 262.695312-64.269531-80.332031c-2.84375-3.558593-7.15625-5.628906-11.710938-5.628906-4.558593 0-8.867187 2.070313-11.714843 5.628906l-64.265625 80.332031c-3.601563 4.503907-4.304688 10.671876-1.808594 15.871094 2.5 5.195313 7.753906 8.5 13.519531 8.5h17.132813v17.132813c0 37.328125-26.300782 72.601562-66.398438 80.03125v-241.25c20.015625-14.851563 32.132813-38.527344 32.132813-63.714844.003906-43.707031-35.558594-79.265625-79.265625-79.265625-43.707032 0-79.265625 35.558594-79.265625 79.265625 0 25.1875 12.117187 48.867187 32.132812 63.714844v241.25c-52.914062-9.800781-66.398437-58.105469-66.398437-80.03125v-17.132813h17.132812c5.765625 0 11.019532-3.304687 13.519532-8.5 2.496093-5.199218 1.792968-11.367187-1.808594-15.871094l-64.265625-80.332031c-2.847657-3.558593-7.15625-5.628906-11.714844-5.628906-4.554687 0-8.863281 2.070313-11.710937 5.628906l-64.265626 80.332031c-3.605468 4.503907-4.304687 10.671876-1.808593 15.871094 2.496093 5.195313 7.753906 8.5 13.519531 8.5h17.132812v17.132813c0 94.746093 75.398438 172.214843 169.34375 175.554687l27.851563 27.851563c2.929687 2.929687 6.765625 4.394531 10.605469 4.394531s7.679687-1.464844 10.605468-4.394531l27.855469-27.851563c93.945313-3.339844 169.339844-80.808594 169.339844-175.554687v-17.132813h17.132813c5.765624 0 11.019531-3.304687 13.519531-8.5 2.5-5.199218 1.796875-11.367187-1.804688-15.871094zm-43.847656-5.628906c-8.285156 0-15 6.714844-15 15v32.132813c0 80.320312-65.347656 145.667969-145.667969 145.667969-3.976562 0-7.792968 1.582031-10.605468 4.394531l-21.527344 21.523437-21.527344-21.523437c-2.8125-2.8125-6.625-4.394531-10.605469-4.394531-80.320312 0-145.667969-65.347657-145.667969-145.667969v-32.132813c0-8.285156-6.714843-15-15-15h-.921874l33.054687-41.320312 33.058594 41.320312h-.921875c-8.285156 0-15 6.714844-15 15v32.132813c0 61.519531 49.765625 111.402343 111.398437 111.402343 8.285157 0 15-6.71875 15-15v-265.679687c0-5.351563-2.851562-10.300781-7.484375-12.980469-15.203125-8.804687-24.648437-25.15625-24.648437-42.675781 0-27.164063 22.101562-49.265625 49.265625-49.265625 27.167968 0 49.269531 22.101562 49.269531 49.265625 0 17.519531-9.445313 33.871094-24.652344 42.675781-4.632812 2.679688-7.480469 7.628906-7.480469 12.980469v265.679687c0 8.28125 6.714844 15 15 15 61.515626 0 111.398438-49.769531 111.398438-111.402343v-32.132813c0-8.285156-6.714844-15-15-15h-.925781l33.058593-41.320312 33.058594 41.320312zm0 0"/></svg>