<svg height="511pt" viewBox="0 -36 511.99929 511" width="511pt" xmlns="http://www.w3.org/2000/svg"><path d="m505.429688 29.078125c-1.699219-1.167969-42.835938-28.578125-143.597657-28.578125-100.765625 0-141.90625 27.410156-143.609375 28.578125-4.109375 2.820313-6.566406 7.484375-6.566406 12.46875v30.035156c-22.988281 4.554688-53.660156 13.675781-91.703125 31.523438-91.222656 42.800781-116.824219 85.089843-117.871094 86.867187-2.523437 4.300782-2.769531 9.566406-.652343 14.082032l61.449218 130.96875c30.203125 64.375 94.492188 103.574218 162.914063 103.574218 15.15625 0 30.519531-1.921875 45.753906-5.921875.046875-.011719.09375-.023437.140625-.039062h.003906c1.726563-.472657 3.359375-1.246094 4.8125-2.285157 26.785156-19.148437 46.929688-44.507812 59.625-72.902343 7.433594 2.40625 15.097656 4.355469 22.960938 5.800781.453125.085938.90625.148438 1.367187.1875h.003907c.453124.042969.910156.0625 1.367187.0625.917969 0 1.832031-.082031 2.734375-.25 85.433594-15.71875 147.4375-90.171875 147.4375-177.035156v-144.667969c0-4.984375-2.457031-9.648437-6.570312-12.46875zm-415.179688 293.101563-57.59375-122.757813c10.039062-11.902344 38.195312-39.878906 100.136719-68.941406 61.953125-29.0625 101.457031-32.832031 117.023437-32.941407l57.59375 122.757813c30.300782 64.585937 10.820313 141.417969-46.238281 183.816406-69.078125 16.777344-140.621094-17.347656-170.921875-81.933593zm391.511719-135.964844c0 71.34375-50.269531 132.625-119.933594 146.769531-5.355469-1.085937-10.597656-2.457031-15.710937-4.085937 7.265624-28.152344 7.738281-58.0625.726562-87.113282 18.746094-5.199218 39.695312-.457031 54.402344 14.25 2.953125 2.953125 6.824218 4.429688 10.691406 4.429688s7.738281-1.476563 10.691406-4.429688c5.902344-5.902344 5.902344-15.472656 0-21.378906-23.0625-23.058594-56.070312-30.257812-85.34375-21.59375-.804687-1.875-1.628906-3.746094-2.503906-5.609375l-24.515625-52.257813c12.210937-.101562 23.679687-4.894531 32.324219-13.542968 5.902344-5.902344 5.902344-15.476563 0-21.378906-5.902344-5.902344-15.476563-5.902344-21.378906 0-3.027344 3.027343-7.050782 4.695312-11.332032 4.695312-4.277344 0-8.300781-1.667969-11.328125-4.695312-1.867187-1.863282-4.097656-3.136719-6.460937-3.824219l-18.753906-39.964844c-2.117188-4.515625-6.320313-7.691406-11.238282-8.5-.734375-.121094-7.539062-1.148437-20.207031-.417969v-16.976562c14.023437-6.472656 51.332031-19.855469 119.941406-19.855469 68.421875 0 105.789063 13.371094 119.929688 19.882813zm0 0"/><path d="m420.21875 155.203125c12.359375 0 23.976562-4.808594 32.714844-13.546875 5.902344-5.90625 5.902344-15.476562 0-21.382812-5.90625-5.902344-15.476563-5.902344-21.382813 0-3.027343 3.027343-7.050781 4.695312-11.328125 4.695312-4.28125 0-8.304687-1.667969-11.332031-4.695312-5.902344-5.902344-15.476563-5.902344-21.382813 0-5.902343 5.90625-5.902343 15.476562 0 21.382812 8.738282 8.738281 20.355469 13.546875 32.710938 13.546875zm0 0"/><path d="m167.078125 248.847656c2.839844-7.851562-1.226563-16.519531-9.078125-19.355468-11.625-4.199219-24.183594-3.621094-35.371094 1.628906s-19.660156 14.539062-23.859375 26.160156c-2.835937 7.851562 1.230469 16.519531 9.082031 19.355469 1.695313.613281 3.429688.902343 5.136719.902343 6.1875 0 11.996094-3.828124 14.21875-9.984374 1.453125-4.023438 4.390625-7.242188 8.265625-9.0625 3.875-1.816407 8.226563-2.015626 12.25-.5625 7.851563 2.835937 16.519532-1.226563 19.355469-9.082032zm0 0"/><path d="m207.742188 229.773438c1.699218.609374 3.429687.902343 5.136718.902343 6.1875 0 11.996094-3.828125 14.21875-9.984375 1.457032-4.027344 4.390625-7.246094 8.265625-9.0625 3.875-1.820312 8.226563-2.019531 12.25-.5625 7.855469 2.835938 16.519531-1.230468 19.359375-9.082031 2.835938-7.855469-1.230468-16.519531-9.082031-19.355469-23.992187-8.667968-50.5625 3.796875-59.230469 27.785156-2.835937 7.855469 1.230469 16.519532 9.082032 19.359376zm0 0"/><path d="m274.355469 289.0625c2.835937-7.851562-1.230469-16.515625-9.082031-19.355469-7.851563-2.839843-16.519532 1.226563-19.355469 9.082031-10.449219 28.910157-42.472657 43.929688-71.378907 33.488282-7.855468-2.839844-16.519531 1.226562-19.355468 9.078125-2.839844 7.855469 1.226562 16.519531 9.078125 19.359375 9.617187 3.472656 19.453125 5.121094 29.136719 5.121094 35.207031 0 68.320312-21.800782 80.957031-56.773438zm0 0"/></svg>